<svg width="29" height="24" viewBox="0 0 29 24" fill="none" xmlns="http://www.w3.org/2000/svg">
<path fill-rule="evenodd" clip-rule="evenodd" d="M4.83068 5C4.52184 5 4.22564 5.10536 4.00725 5.29289C3.78886 5.48043 3.66617 5.73478 3.66617 6C3.66617 6.26522 3.78886 6.51957 4.00725 6.70711C4.22564 6.89464 4.52184 7 4.83068 7H24.6275C24.9363 7 25.2325 6.89464 25.4509 6.70711C25.6693 6.51957 25.792 6.26522 25.792 6C25.792 5.73478 25.6693 5.48043 25.4509 5.29289C25.2325 5.10536 24.9363 5 24.6275 5H4.83068ZM3.66617 12C3.66617 11.7348 3.78886 11.4804 4.00725 11.2929C4.22564 11.1054 4.52184 11 4.83068 11H24.6275C24.9363 11 25.2325 11.1054 25.4509 11.2929C25.6693 11.4804 25.792 11.7348 25.792 12C25.792 12.2652 25.6693 12.5196 25.4509 12.7071C25.2325 12.8946 24.9363 13 24.6275 13H4.83068C4.52184 13 4.22564 12.8946 4.00725 12.7071C3.78886 12.5196 3.66617 12.2652 3.66617 12ZM3.66617 18.001C3.66617 17.7358 3.78886 17.4814 4.00725 17.2939C4.22564 17.1064 4.52184 17.001 4.83068 17.001H24.6275C24.9363 17.001 25.2325 17.1064 25.4509 17.2939C25.6693 17.4814 25.792 17.7358 25.792 18.001C25.792 18.2662 25.6693 18.5206 25.4509 18.7081C25.2325 18.8956 24.9363 19.001 24.6275 19.001H4.83068C4.52184 19.001 4.22564 18.8956 4.00725 18.7081C3.78886 18.5206 3.66617 18.2662 3.66617 18.001Z" fill="#161B33"/>
</svg>
